<?xml version="1.0" encoding="UTF-8" standalone="no"?>
<!DOCTYPE svg PUBLIC "-//W3C//DTD SVG 1.1//EN" "http://www.w3.org/Graphics/SVG/1.1/DTD/svg11.dtd">
<svg width="100%" height="100%" viewBox="0 0 258 38" version="1.1" xmlns="http://www.w3.org/2000/svg" xmlns:xlink="http://www.w3.org/1999/xlink" xml:space="preserve" xmlns:serif="http://www.serif.com/" style="fill-rule:evenodd;clip-rule:evenodd;stroke-linejoin:round;stroke-miterlimit:2;">
    <g id="Artboard1" transform="matrix(1.40217,0,0,1,0,0)">
        <rect x="0" y="0" width="184" height="38" style="fill:none;"/>
        <g transform="matrix(1.34109,0,0,1,1.29744,0)">
            <g transform="matrix(1.64614,0,0,3.08855,-69.0666,21.6811)">
                <g transform="matrix(8.90387,0,0,8.90387,44.0837,2.32395)">
                    <path d="M0.166,-0.223L0.022,-0.223L0.022,-0.194C0.022,-0.128 0.04,-0.077 0.075,-0.042C0.11,-0.007 0.168,0.011 0.249,0.011C0.327,0.011 0.388,-0.006 0.432,-0.041C0.475,-0.075 0.497,-0.13 0.497,-0.205C0.497,-0.227 0.495,-0.247 0.491,-0.265C0.487,-0.283 0.48,-0.3 0.47,-0.315C0.459,-0.33 0.445,-0.343 0.428,-0.357C0.411,-0.37 0.388,-0.382 0.361,-0.394L0.25,-0.442C0.219,-0.455 0.199,-0.468 0.19,-0.484C0.181,-0.499 0.176,-0.517 0.176,-0.539C0.176,-0.55 0.177,-0.56 0.18,-0.57C0.182,-0.58 0.186,-0.589 0.193,-0.597C0.199,-0.604 0.207,-0.61 0.218,-0.615C0.229,-0.62 0.242,-0.622 0.258,-0.622C0.286,-0.622 0.306,-0.613 0.318,-0.595C0.33,-0.576 0.336,-0.55 0.336,-0.516L0.474,-0.516L0.474,-0.536C0.474,-0.57 0.468,-0.599 0.458,-0.624C0.447,-0.648 0.431,-0.668 0.412,-0.684C0.392,-0.699 0.369,-0.711 0.342,-0.718C0.315,-0.724 0.285,-0.728 0.253,-0.728C0.184,-0.728 0.13,-0.711 0.091,-0.676C0.052,-0.641 0.032,-0.589 0.032,-0.518C0.032,-0.489 0.036,-0.463 0.043,-0.441C0.05,-0.418 0.062,-0.399 0.078,-0.382C0.093,-0.365 0.113,-0.35 0.136,-0.337C0.159,-0.324 0.187,-0.313 0.219,-0.302C0.243,-0.294 0.263,-0.286 0.28,-0.279C0.296,-0.271 0.309,-0.262 0.319,-0.253C0.329,-0.244 0.336,-0.233 0.341,-0.222C0.345,-0.21 0.347,-0.196 0.347,-0.18C0.347,-0.15 0.338,-0.128 0.321,-0.114C0.303,-0.099 0.283,-0.092 0.261,-0.092C0.242,-0.092 0.227,-0.095 0.215,-0.1C0.202,-0.105 0.192,-0.113 0.185,-0.122C0.178,-0.131 0.173,-0.143 0.17,-0.157C0.167,-0.17 0.166,-0.185 0.166,-0.202L0.166,-0.223Z" style="fill:rgb(175,152,94);fill-rule:nonzero;"/>
                </g>
                <g transform="matrix(8.90387,0,0,8.90387,48.7048,2.32395)">
                    <rect x="0.044" y="-0.348" width="0.282" height="0.118" style="fill:rgb(175,152,94);fill-rule:nonzero;"/>
                </g>
                <g transform="matrix(8.90387,0,0,8.90387,51.9992,2.32395)">
                    <path d="M0.449,-0.714L0.05,-0.714L0.05,-0L0.459,-0L0.459,-0.118L0.194,-0.118L0.194,-0.31L0.434,-0.31L0.434,-0.428L0.194,-0.428L0.194,-0.596L0.449,-0.596L0.449,-0.714Z" style="fill:rgb(175,152,94);fill-rule:nonzero;"/>
                </g>
                <g transform="matrix(8.90387,0,0,8.90387,56.282,2.32395)">
                    <path d="M0.02,-0.714L0.184,-0.361L0.006,-0L0.164,-0L0.266,-0.242L0.369,-0L0.531,-0L0.353,-0.361L0.519,-0.714L0.362,-0.714L0.271,-0.483L0.179,-0.714L0.02,-0.714Z" style="fill:rgb(175,152,94);fill-rule:nonzero;"/>
                </g>
                <g transform="matrix(8.90387,0,0,8.90387,61.0634,2.32395)">
                    <path d="M0.194,-0.391L0.194,-0.608L0.254,-0.608C0.29,-0.608 0.316,-0.599 0.331,-0.58C0.346,-0.561 0.354,-0.534 0.354,-0.498C0.354,-0.461 0.345,-0.434 0.328,-0.417C0.31,-0.4 0.287,-0.391 0.258,-0.391L0.194,-0.391ZM0.05,-0.714L0.05,-0L0.194,-0L0.194,-0.285L0.271,-0.285C0.305,-0.285 0.336,-0.289 0.364,-0.298C0.392,-0.307 0.416,-0.32 0.436,-0.337C0.455,-0.354 0.47,-0.377 0.482,-0.404C0.493,-0.431 0.498,-0.463 0.498,-0.5C0.498,-0.527 0.495,-0.553 0.488,-0.579C0.481,-0.604 0.47,-0.627 0.455,-0.647C0.44,-0.667 0.42,-0.683 0.395,-0.696C0.37,-0.708 0.339,-0.714 0.302,-0.714L0.05,-0.714Z" style="fill:rgb(175,152,94);fill-rule:nonzero;"/>
                </g>
                <g transform="matrix(8.90387,0,0,8.90387,65.6845,2.32395)">
                    <path d="M0.05,-0.714L0.05,-0L0.194,-0L0.194,-0.302L0.271,-0.302C0.301,-0.302 0.322,-0.294 0.335,-0.278C0.348,-0.262 0.355,-0.24 0.356,-0.212L0.36,-0.075C0.361,-0.061 0.362,-0.048 0.364,-0.035C0.366,-0.022 0.371,-0.01 0.378,-0L0.534,-0L0.534,-0.006C0.521,-0.013 0.512,-0.027 0.508,-0.047C0.505,-0.067 0.503,-0.096 0.502,-0.134C0.501,-0.153 0.501,-0.171 0.5,-0.187C0.499,-0.202 0.498,-0.217 0.497,-0.23C0.493,-0.27 0.483,-0.299 0.466,-0.317C0.449,-0.335 0.423,-0.347 0.387,-0.352L0.387,-0.354C0.428,-0.363 0.458,-0.382 0.477,-0.413C0.496,-0.443 0.506,-0.482 0.506,-0.53C0.506,-0.592 0.489,-0.638 0.456,-0.669C0.423,-0.699 0.376,-0.714 0.316,-0.714L0.05,-0.714ZM0.194,-0.402L0.194,-0.608L0.262,-0.608C0.329,-0.608 0.362,-0.575 0.362,-0.509C0.362,-0.47 0.353,-0.443 0.334,-0.427C0.315,-0.41 0.289,-0.402 0.254,-0.402L0.194,-0.402Z" style="fill:rgb(175,152,94);fill-rule:nonzero;"/>
                </g>
                <g transform="matrix(8.90387,0,0,8.90387,70.635,2.32395)">
                    <path d="M0.449,-0.714L0.05,-0.714L0.05,-0L0.459,-0L0.459,-0.118L0.194,-0.118L0.194,-0.31L0.434,-0.31L0.434,-0.428L0.194,-0.428L0.194,-0.596L0.449,-0.596L0.449,-0.714Z" style="fill:rgb(175,152,94);fill-rule:nonzero;"/>
                </g>
                <g transform="matrix(8.90387,0,0,8.90387,74.9178,2.32395)">
                    <path d="M0.166,-0.223L0.022,-0.223L0.022,-0.194C0.022,-0.128 0.04,-0.077 0.075,-0.042C0.11,-0.007 0.168,0.011 0.249,0.011C0.327,0.011 0.388,-0.006 0.432,-0.041C0.475,-0.075 0.497,-0.13 0.497,-0.205C0.497,-0.227 0.495,-0.247 0.491,-0.265C0.487,-0.283 0.48,-0.3 0.47,-0.315C0.459,-0.33 0.445,-0.343 0.428,-0.357C0.411,-0.37 0.388,-0.382 0.361,-0.394L0.25,-0.442C0.219,-0.455 0.199,-0.468 0.19,-0.484C0.181,-0.499 0.176,-0.517 0.176,-0.539C0.176,-0.55 0.177,-0.56 0.18,-0.57C0.182,-0.58 0.186,-0.589 0.193,-0.597C0.199,-0.604 0.207,-0.61 0.218,-0.615C0.229,-0.62 0.242,-0.622 0.258,-0.622C0.286,-0.622 0.306,-0.613 0.318,-0.595C0.33,-0.576 0.336,-0.55 0.336,-0.516L0.474,-0.516L0.474,-0.536C0.474,-0.57 0.468,-0.599 0.458,-0.624C0.447,-0.648 0.431,-0.668 0.412,-0.684C0.392,-0.699 0.369,-0.711 0.342,-0.718C0.315,-0.724 0.285,-0.728 0.253,-0.728C0.184,-0.728 0.13,-0.711 0.091,-0.676C0.052,-0.641 0.032,-0.589 0.032,-0.518C0.032,-0.489 0.036,-0.463 0.043,-0.441C0.05,-0.418 0.062,-0.399 0.078,-0.382C0.093,-0.365 0.113,-0.35 0.136,-0.337C0.159,-0.324 0.187,-0.313 0.219,-0.302C0.243,-0.294 0.263,-0.286 0.28,-0.279C0.296,-0.271 0.309,-0.262 0.319,-0.253C0.329,-0.244 0.336,-0.233 0.341,-0.222C0.345,-0.21 0.347,-0.196 0.347,-0.18C0.347,-0.15 0.338,-0.128 0.321,-0.114C0.303,-0.099 0.283,-0.092 0.261,-0.092C0.242,-0.092 0.227,-0.095 0.215,-0.1C0.202,-0.105 0.192,-0.113 0.185,-0.122C0.178,-0.131 0.173,-0.143 0.17,-0.157C0.167,-0.17 0.166,-0.185 0.166,-0.202L0.166,-0.223Z" style="fill:rgb(175,152,94);fill-rule:nonzero;"/>
                </g>
                <g transform="matrix(8.90387,0,0,8.90387,79.5389,2.32395)">
                    <path d="M0.166,-0.223L0.022,-0.223L0.022,-0.194C0.022,-0.128 0.04,-0.077 0.075,-0.042C0.11,-0.007 0.168,0.011 0.249,0.011C0.327,0.011 0.388,-0.006 0.432,-0.041C0.475,-0.075 0.497,-0.13 0.497,-0.205C0.497,-0.227 0.495,-0.247 0.491,-0.265C0.487,-0.283 0.48,-0.3 0.47,-0.315C0.459,-0.33 0.445,-0.343 0.428,-0.357C0.411,-0.37 0.388,-0.382 0.361,-0.394L0.25,-0.442C0.219,-0.455 0.199,-0.468 0.19,-0.484C0.181,-0.499 0.176,-0.517 0.176,-0.539C0.176,-0.55 0.177,-0.56 0.18,-0.57C0.182,-0.58 0.186,-0.589 0.193,-0.597C0.199,-0.604 0.207,-0.61 0.218,-0.615C0.229,-0.62 0.242,-0.622 0.258,-0.622C0.286,-0.622 0.306,-0.613 0.318,-0.595C0.33,-0.576 0.336,-0.55 0.336,-0.516L0.474,-0.516L0.474,-0.536C0.474,-0.57 0.468,-0.599 0.458,-0.624C0.447,-0.648 0.431,-0.668 0.412,-0.684C0.392,-0.699 0.369,-0.711 0.342,-0.718C0.315,-0.724 0.285,-0.728 0.253,-0.728C0.184,-0.728 0.13,-0.711 0.091,-0.676C0.052,-0.641 0.032,-0.589 0.032,-0.518C0.032,-0.489 0.036,-0.463 0.043,-0.441C0.05,-0.418 0.062,-0.399 0.078,-0.382C0.093,-0.365 0.113,-0.35 0.136,-0.337C0.159,-0.324 0.187,-0.313 0.219,-0.302C0.243,-0.294 0.263,-0.286 0.28,-0.279C0.296,-0.271 0.309,-0.262 0.319,-0.253C0.329,-0.244 0.336,-0.233 0.341,-0.222C0.345,-0.21 0.347,-0.196 0.347,-0.18C0.347,-0.15 0.338,-0.128 0.321,-0.114C0.303,-0.099 0.283,-0.092 0.261,-0.092C0.242,-0.092 0.227,-0.095 0.215,-0.1C0.202,-0.105 0.192,-0.113 0.185,-0.122C0.178,-0.131 0.173,-0.143 0.17,-0.157C0.167,-0.17 0.166,-0.185 0.166,-0.202L0.166,-0.223Z" style="fill:rgb(175,152,94);fill-rule:nonzero;"/>
                </g>
                <g transform="matrix(8.90387,0,0,8.90387,84.16,2.32395)">
                    <rect x="0.057" y="-0.714" width="0.144" height="0.714" style="fill:rgb(175,152,94);fill-rule:nonzero;"/>
                </g>
                <g transform="matrix(8.90387,0,0,8.90387,86.4572,2.32395)">
                    <path d="M0.179,-0.357C0.179,-0.405 0.18,-0.446 0.183,-0.479C0.185,-0.512 0.19,-0.54 0.197,-0.561C0.204,-0.582 0.214,-0.598 0.227,-0.608C0.24,-0.617 0.257,-0.622 0.278,-0.622C0.299,-0.622 0.317,-0.617 0.33,-0.608C0.343,-0.598 0.353,-0.582 0.36,-0.561C0.367,-0.54 0.371,-0.512 0.374,-0.479C0.376,-0.446 0.377,-0.405 0.377,-0.357C0.377,-0.309 0.376,-0.268 0.374,-0.235C0.371,-0.201 0.367,-0.173 0.36,-0.153C0.353,-0.131 0.343,-0.116 0.33,-0.107C0.317,-0.097 0.299,-0.092 0.278,-0.092C0.257,-0.092 0.24,-0.097 0.227,-0.107C0.214,-0.116 0.204,-0.131 0.197,-0.153C0.19,-0.173 0.185,-0.201 0.183,-0.235C0.18,-0.268 0.179,-0.309 0.179,-0.357ZM0.035,-0.357C0.035,-0.302 0.038,-0.252 0.043,-0.207C0.048,-0.162 0.058,-0.123 0.076,-0.09C0.093,-0.057 0.117,-0.032 0.149,-0.015C0.181,0.002 0.224,0.011 0.278,0.011C0.332,0.011 0.375,0.002 0.407,-0.015C0.439,-0.032 0.464,-0.057 0.481,-0.09C0.498,-0.123 0.509,-0.162 0.514,-0.207C0.519,-0.252 0.521,-0.302 0.521,-0.357C0.521,-0.411 0.519,-0.461 0.514,-0.507C0.509,-0.552 0.498,-0.591 0.481,-0.624C0.464,-0.657 0.439,-0.682 0.407,-0.701C0.375,-0.719 0.332,-0.728 0.278,-0.728C0.224,-0.728 0.181,-0.719 0.149,-0.701C0.117,-0.682 0.093,-0.657 0.076,-0.624C0.058,-0.591 0.048,-0.552 0.043,-0.507C0.038,-0.461 0.035,-0.411 0.035,-0.357Z" style="fill:rgb(175,152,94);fill-rule:nonzero;"/>
                </g>
                <g transform="matrix(8.90387,0,0,8.90387,91.4078,2.32395)">
                    <path d="M0.216,-0.714L0.05,-0.714L0.05,-0L0.182,-0L0.182,-0.5L0.184,-0.5L0.36,-0L0.524,-0L0.524,-0.714L0.392,-0.714L0.392,-0.225L0.39,-0.225L0.216,-0.714Z" style="fill:rgb(175,152,94);fill-rule:nonzero;"/>
                </g>
                <g transform="matrix(8.90387,0,0,8.90387,96.5186,2.32395)">
                    <path d="M0.166,-0.223L0.022,-0.223L0.022,-0.194C0.022,-0.128 0.04,-0.077 0.075,-0.042C0.11,-0.007 0.168,0.011 0.249,0.011C0.327,0.011 0.388,-0.006 0.432,-0.041C0.475,-0.075 0.497,-0.13 0.497,-0.205C0.497,-0.227 0.495,-0.247 0.491,-0.265C0.487,-0.283 0.48,-0.3 0.47,-0.315C0.459,-0.33 0.445,-0.343 0.428,-0.357C0.411,-0.37 0.388,-0.382 0.361,-0.394L0.25,-0.442C0.219,-0.455 0.199,-0.468 0.19,-0.484C0.181,-0.499 0.176,-0.517 0.176,-0.539C0.176,-0.55 0.177,-0.56 0.18,-0.57C0.182,-0.58 0.186,-0.589 0.193,-0.597C0.199,-0.604 0.207,-0.61 0.218,-0.615C0.229,-0.62 0.242,-0.622 0.258,-0.622C0.286,-0.622 0.306,-0.613 0.318,-0.595C0.33,-0.576 0.336,-0.55 0.336,-0.516L0.474,-0.516L0.474,-0.536C0.474,-0.57 0.468,-0.599 0.458,-0.624C0.447,-0.648 0.431,-0.668 0.412,-0.684C0.392,-0.699 0.369,-0.711 0.342,-0.718C0.315,-0.724 0.285,-0.728 0.253,-0.728C0.184,-0.728 0.13,-0.711 0.091,-0.676C0.052,-0.641 0.032,-0.589 0.032,-0.518C0.032,-0.489 0.036,-0.463 0.043,-0.441C0.05,-0.418 0.062,-0.399 0.078,-0.382C0.093,-0.365 0.113,-0.35 0.136,-0.337C0.159,-0.324 0.187,-0.313 0.219,-0.302C0.243,-0.294 0.263,-0.286 0.28,-0.279C0.296,-0.271 0.309,-0.262 0.319,-0.253C0.329,-0.244 0.336,-0.233 0.341,-0.222C0.345,-0.21 0.347,-0.196 0.347,-0.18C0.347,-0.15 0.338,-0.128 0.321,-0.114C0.303,-0.099 0.283,-0.092 0.261,-0.092C0.242,-0.092 0.227,-0.095 0.215,-0.1C0.202,-0.105 0.192,-0.113 0.185,-0.122C0.178,-0.131 0.173,-0.143 0.17,-0.157C0.167,-0.17 0.166,-0.185 0.166,-0.202L0.166,-0.223Z" style="fill:rgb(175,152,94);fill-rule:nonzero;"/>
                </g>
                <g transform="matrix(8.90387,0,0,8.90387,103.277,2.32395)">
                    <rect x="0.054" y="-0.156" width="0.132" height="0.156" style="fill:rgb(175,152,94);fill-rule:nonzero;"/>
                </g>
                <g transform="matrix(8.90387,0,0,8.90387,107.221,2.32395)">
                    <path d="M0.179,-0.357C0.179,-0.405 0.18,-0.446 0.183,-0.479C0.185,-0.512 0.19,-0.54 0.197,-0.561C0.204,-0.582 0.214,-0.598 0.227,-0.608C0.24,-0.617 0.257,-0.622 0.278,-0.622C0.299,-0.622 0.317,-0.617 0.33,-0.608C0.343,-0.598 0.353,-0.582 0.36,-0.561C0.367,-0.54 0.371,-0.512 0.374,-0.479C0.376,-0.446 0.377,-0.405 0.377,-0.357C0.377,-0.309 0.376,-0.268 0.374,-0.235C0.371,-0.201 0.367,-0.173 0.36,-0.153C0.353,-0.131 0.343,-0.116 0.33,-0.107C0.317,-0.097 0.299,-0.092 0.278,-0.092C0.257,-0.092 0.24,-0.097 0.227,-0.107C0.214,-0.116 0.204,-0.131 0.197,-0.153C0.19,-0.173 0.185,-0.201 0.183,-0.235C0.18,-0.268 0.179,-0.309 0.179,-0.357ZM0.035,-0.357C0.035,-0.302 0.038,-0.252 0.043,-0.207C0.048,-0.162 0.058,-0.123 0.076,-0.09C0.093,-0.057 0.117,-0.032 0.149,-0.015C0.181,0.002 0.224,0.011 0.278,0.011C0.332,0.011 0.375,0.002 0.407,-0.015C0.439,-0.032 0.464,-0.057 0.481,-0.09C0.498,-0.123 0.509,-0.162 0.514,-0.207C0.519,-0.252 0.521,-0.302 0.521,-0.357C0.521,-0.411 0.519,-0.461 0.514,-0.507C0.509,-0.552 0.498,-0.591 0.481,-0.624C0.464,-0.657 0.439,-0.682 0.407,-0.701C0.375,-0.719 0.332,-0.728 0.278,-0.728C0.224,-0.728 0.181,-0.719 0.149,-0.701C0.117,-0.682 0.093,-0.657 0.076,-0.624C0.058,-0.591 0.048,-0.552 0.043,-0.507C0.038,-0.461 0.035,-0.411 0.035,-0.357Z" style="fill:rgb(175,152,94);fill-rule:nonzero;"/>
                </g>
                <g transform="matrix(8.90387,0,0,8.90387,112.172,2.32395)">
                    <path d="M0.05,-0.714L0.05,-0L0.194,-0L0.194,-0.302L0.271,-0.302C0.301,-0.302 0.322,-0.294 0.335,-0.278C0.348,-0.262 0.355,-0.24 0.356,-0.212L0.36,-0.075C0.361,-0.061 0.362,-0.048 0.364,-0.035C0.366,-0.022 0.371,-0.01 0.378,-0L0.534,-0L0.534,-0.006C0.521,-0.013 0.512,-0.027 0.508,-0.047C0.505,-0.067 0.503,-0.096 0.502,-0.134C0.501,-0.153 0.501,-0.171 0.5,-0.187C0.499,-0.202 0.498,-0.217 0.497,-0.23C0.493,-0.27 0.483,-0.299 0.466,-0.317C0.449,-0.335 0.423,-0.347 0.387,-0.352L0.387,-0.354C0.428,-0.363 0.458,-0.382 0.477,-0.413C0.496,-0.443 0.506,-0.482 0.506,-0.53C0.506,-0.592 0.489,-0.638 0.456,-0.669C0.423,-0.699 0.376,-0.714 0.316,-0.714L0.05,-0.714ZM0.194,-0.402L0.194,-0.608L0.262,-0.608C0.329,-0.608 0.362,-0.575 0.362,-0.509C0.362,-0.47 0.353,-0.443 0.334,-0.427C0.315,-0.41 0.289,-0.402 0.254,-0.402L0.194,-0.402Z" style="fill:rgb(175,152,94);fill-rule:nonzero;"/>
                </g>
                <g transform="matrix(8.90387,0,0,8.90387,117.122,2.32395)">
                    <path d="M0.367,-0.502L0.505,-0.502C0.505,-0.575 0.488,-0.63 0.453,-0.67C0.418,-0.708 0.362,-0.728 0.283,-0.728C0.237,-0.728 0.199,-0.72 0.168,-0.705C0.137,-0.69 0.113,-0.667 0.094,-0.637C0.075,-0.606 0.062,-0.568 0.055,-0.523C0.047,-0.478 0.043,-0.425 0.043,-0.365C0.043,-0.303 0.046,-0.249 0.051,-0.202C0.056,-0.155 0.067,-0.115 0.083,-0.083C0.098,-0.051 0.12,-0.027 0.148,-0.012C0.175,0.003 0.211,0.011 0.255,0.011C0.289,0.011 0.318,0.005 0.343,-0.007C0.367,-0.018 0.388,-0.038 0.405,-0.066L0.407,-0.066L0.407,-0L0.513,-0L0.513,-0.385L0.28,-0.385L0.28,-0.279L0.375,-0.279L0.375,-0.206C0.375,-0.187 0.372,-0.17 0.366,-0.156C0.36,-0.141 0.353,-0.129 0.344,-0.12C0.335,-0.111 0.325,-0.104 0.315,-0.099C0.304,-0.094 0.295,-0.092 0.286,-0.092C0.265,-0.092 0.249,-0.098 0.236,-0.112C0.223,-0.125 0.213,-0.143 0.206,-0.168C0.199,-0.192 0.194,-0.221 0.191,-0.256C0.188,-0.291 0.187,-0.329 0.187,-0.372C0.187,-0.461 0.195,-0.525 0.21,-0.564C0.225,-0.603 0.25,-0.622 0.285,-0.622C0.3,-0.622 0.312,-0.618 0.323,-0.611C0.333,-0.603 0.341,-0.593 0.348,-0.582C0.355,-0.57 0.36,-0.557 0.363,-0.543C0.366,-0.529 0.367,-0.515 0.367,-0.502Z" style="fill:rgb(175,152,94);fill-rule:nonzero;"/>
                </g>
            </g>
            <g transform="matrix(14.657,0,0,27.5,-0.732849,26.3287)">
                <path d="M0.296,-0.714L0.19,-0.714C0.14,-0.635 0.104,-0.559 0.083,-0.484C0.061,-0.409 0.05,-0.336 0.05,-0.265C0.05,-0.194 0.061,-0.122 0.083,-0.048C0.104,0.026 0.14,0.102 0.19,0.181L0.296,0.181C0.275,0.143 0.258,0.106 0.243,0.071C0.228,0.035 0.217,-0.001 0.208,-0.036C0.199,-0.07 0.192,-0.107 0.188,-0.145C0.184,-0.182 0.182,-0.222 0.182,-0.265C0.182,-0.308 0.184,-0.348 0.188,-0.386C0.192,-0.423 0.199,-0.46 0.208,-0.496C0.217,-0.532 0.228,-0.568 0.243,-0.604C0.258,-0.639 0.275,-0.676 0.296,-0.714Z" style="fill:rgb(175,152,94);fill-rule:nonzero;"/>
            </g>
            <g transform="matrix(14.657,0,0,27.5,131.662,26.3287)">
                <path d="M0.106,-0.714L0,-0.714C0.021,-0.676 0.038,-0.639 0.053,-0.604C0.068,-0.568 0.08,-0.532 0.089,-0.496C0.097,-0.46 0.104,-0.423 0.108,-0.386C0.112,-0.348 0.114,-0.308 0.114,-0.265C0.114,-0.222 0.112,-0.182 0.108,-0.145C0.104,-0.107 0.097,-0.07 0.089,-0.036C0.08,-0.001 0.068,0.035 0.053,0.071C0.038,0.106 0.021,0.143 0,0.181L0.106,0.181C0.156,0.102 0.192,0.026 0.214,-0.048C0.235,-0.122 0.246,-0.194 0.246,-0.265C0.246,-0.336 0.235,-0.409 0.214,-0.484C0.192,-0.559 0.156,-0.635 0.106,-0.714Z" style="fill:rgb(175,152,94);fill-rule:nonzero;"/>
            </g>
        </g>
    </g>
</svg>
