<?xml version="1.0" encoding="UTF-8" standalone="no"?>
<!DOCTYPE svg PUBLIC "-//W3C//DTD SVG 1.1//EN" "http://www.w3.org/Graphics/SVG/1.1/DTD/svg11.dtd">
<svg width="100%" height="100%" viewBox="0 0 17 16" version="1.1" xmlns="http://www.w3.org/2000/svg" xmlns:xlink="http://www.w3.org/1999/xlink" xml:space="preserve" xmlns:serif="http://www.serif.com/" style="fill-rule:evenodd;clip-rule:evenodd;stroke-linejoin:round;stroke-miterlimit:2;">
    <g>
        <rect x="0" y="0" width="17" height="16" style="fill:rgb(138,121,78);"/>
        <path d="M13.952,8.7L13.529,9.219C13.492,9.26 13.445,9.287 13.386,9.296L13.365,9.296C13.306,9.296 13.258,9.279 13.221,9.247L8.5,5.199L3.778,9.247C3.724,9.284 3.67,9.301 3.615,9.296C3.556,9.287 3.507,9.26 3.472,9.219L3.049,8.7C3.012,8.653 2.996,8.598 3.001,8.535C3.005,8.471 3.03,8.421 3.076,8.384L7.982,4.182C8.127,4.061 8.3,4 8.5,4C8.7,4 8.873,4.061 9.019,4.182L10.683,5.613L10.683,4.246C10.683,4.181 10.704,4.126 10.745,4.084C10.786,4.042 10.838,4.021 10.902,4.021L12.212,4.021C12.276,4.021 12.328,4.042 12.369,4.084C12.41,4.126 12.431,4.18 12.431,4.246L12.431,7.108L13.925,8.384C13.97,8.421 13.995,8.471 14,8.535C14.004,8.598 13.989,8.653 13.952,8.7ZM12.431,9.184L12.431,12.55C12.431,12.673 12.388,12.778 12.301,12.867C12.214,12.955 12.112,13 11.994,13L9.374,13L9.374,10.306L7.627,10.306L7.627,13L5.007,13C4.889,13 4.786,12.955 4.7,12.867C4.614,12.777 4.571,12.673 4.571,12.55L4.571,9.184C4.571,9.179 4.572,9.172 4.574,9.163C4.576,9.154 4.577,9.147 4.577,9.142L8.5,5.817L12.423,9.142C12.428,9.151 12.431,9.165 12.431,9.184Z" style="fill:white;fill-rule:nonzero;"/>
    </g>
</svg>
