<?xml version="1.0" encoding="UTF-8" standalone="no"?>
<!DOCTYPE svg PUBLIC "-//W3C//DTD SVG 1.1//EN" "http://www.w3.org/Graphics/SVG/1.1/DTD/svg11.dtd">
<svg width="100%" height="100%" viewBox="0 0 51 32" version="1.1" xmlns="http://www.w3.org/2000/svg" xmlns:xlink="http://www.w3.org/1999/xlink" xml:space="preserve" xmlns:serif="http://www.serif.com/" style="fill-rule:evenodd;clip-rule:evenodd;stroke-linejoin:round;stroke-miterlimit:2;">
    <g id="Artboard1" transform="matrix(1.5,0,0,1,0,0)">
        <rect x="0" y="0" width="34" height="32" style="fill:none;"/>
        <g id="buttons" transform="matrix(1,0,0,1.5,0,-32)">
            <g id="home" transform="matrix(0.666667,0,0,0.666667,0,21.3333)">
                <rect x="0" y="0" width="17" height="16" style="fill:rgb(138,121,78);"/>
                <path d="M13.952,8.7L13.529,9.219C13.492,9.26 13.445,9.287 13.386,9.296L13.365,9.296C13.306,9.296 13.258,9.279 13.221,9.247L8.5,5.199L3.778,9.247C3.724,9.284 3.67,9.301 3.615,9.296C3.556,9.287 3.507,9.26 3.472,9.219L3.049,8.7C3.012,8.653 2.996,8.598 3.001,8.535C3.005,8.471 3.03,8.421 3.076,8.384L7.982,4.182C8.127,4.061 8.3,4 8.5,4C8.7,4 8.873,4.061 9.019,4.182L10.683,5.613L10.683,4.246C10.683,4.181 10.704,4.126 10.745,4.084C10.786,4.042 10.838,4.021 10.902,4.021L12.212,4.021C12.276,4.021 12.328,4.042 12.369,4.084C12.41,4.126 12.431,4.18 12.431,4.246L12.431,7.108L13.925,8.384C13.97,8.421 13.995,8.471 14,8.535C14.004,8.598 13.989,8.653 13.952,8.7ZM12.431,9.184L12.431,12.55C12.431,12.673 12.388,12.778 12.301,12.867C12.214,12.955 12.112,13 11.994,13L9.374,13L9.374,10.306L7.627,10.306L7.627,13L5.007,13C4.889,13 4.786,12.955 4.7,12.867C4.614,12.777 4.571,12.673 4.571,12.55L4.571,9.184C4.571,9.179 4.572,9.172 4.574,9.163C4.576,9.154 4.577,9.147 4.577,9.142L8.5,5.817L12.423,9.142C12.428,9.151 12.431,9.165 12.431,9.184Z" style="fill:rgb(235,235,235);fill-rule:nonzero;"/>
            </g>
            <g id="contact" transform="matrix(0.666667,0,0,0.666667,11.3333,21.3333)">
                <rect x="0" y="0" width="17" height="16" style="fill:rgb(138,121,78);"/>
                <path d="M14,5.022L14,11.976C14,12.257 13.904,12.498 13.712,12.698C13.52,12.899 13.288,13 13.018,13L3.982,13C3.711,13 3.481,12.899 3.288,12.698C3.096,12.499 3,12.258 3,11.977L3,5.022C3,4.742 3.096,4.5 3.289,4.3C3.482,4.1 3.712,4 3.982,4L13.017,4C13.288,4 13.519,4.1 13.711,4.3C13.903,4.5 14,4.742 14,5.022ZM13.216,5.259L13.216,5.102C13.216,5.083 13.214,5.056 13.211,5.019C13.209,4.983 13.203,4.956 13.193,4.939C13.183,4.922 13.171,4.903 13.159,4.881C13.146,4.86 13.129,4.843 13.104,4.833C13.08,4.823 13.05,4.817 13.017,4.817L3.982,4.817C3.928,4.817 3.882,4.838 3.844,4.878C3.805,4.919 3.786,4.967 3.786,5.022C3.786,5.738 4.087,6.343 4.688,6.837C5.478,7.484 6.299,8.16 7.15,8.862C7.174,8.884 7.246,8.946 7.365,9.05C7.483,9.154 7.577,9.235 7.647,9.29C7.716,9.349 7.808,9.415 7.92,9.493C8.033,9.572 8.136,9.632 8.23,9.669C8.324,9.708 8.412,9.727 8.494,9.727L8.506,9.727C8.588,9.727 8.675,9.708 8.77,9.669C8.865,9.632 8.968,9.572 9.081,9.493C9.193,9.415 9.285,9.348 9.354,9.292C9.424,9.236 9.518,9.156 9.637,9.052C9.755,8.948 9.827,8.886 9.851,8.864C10.703,8.161 11.523,7.486 12.312,6.839C12.535,6.655 12.74,6.41 12.929,6.101C13.12,5.791 13.216,5.51 13.216,5.259ZM13.216,11.977L13.216,7.068C13.084,7.221 12.944,7.361 12.791,7.49C11.694,8.367 10.822,9.087 10.176,9.651C9.968,9.834 9.798,9.977 9.667,10.08C9.536,10.183 9.359,10.285 9.135,10.39C8.912,10.494 8.702,10.546 8.506,10.546L8.494,10.546C8.298,10.546 8.088,10.494 7.865,10.39C7.642,10.286 7.465,10.183 7.334,10.08C7.203,9.977 7.033,9.833 6.825,9.65C6.178,9.087 5.306,8.367 4.209,7.49C4.058,7.361 3.917,7.221 3.786,7.068L3.786,11.977C3.786,12.033 3.806,12.08 3.845,12.121C3.884,12.162 3.929,12.183 3.983,12.183L13.018,12.183C13.072,12.183 13.118,12.162 13.158,12.121C13.195,12.079 13.216,12.032 13.216,11.977Z" style="fill:rgb(235,235,235);fill-rule:nonzero;"/>
            </g>
            <g id="sitemap" transform="matrix(0.666667,0,0,0.666667,22.6667,21.3333)">
                <rect x="0" y="0" width="17" height="16" style="fill:rgb(138,121,78);"/>
                <path d="M14,11.02L14,13.311C14,13.503 13.943,13.666 13.828,13.8C13.714,13.934 13.574,14 13.411,14L11.446,14C11.283,14 11.144,13.934 11.029,13.8C10.915,13.666 10.857,13.503 10.857,13.311L10.857,11.02C10.857,10.831 10.915,10.667 11.029,10.534C11.144,10.4 11.283,10.334 11.446,10.334L12.035,10.334L12.035,8.958L8.894,8.958L8.894,10.333L9.483,10.333C9.646,10.333 9.786,10.399 9.9,10.533C10.015,10.667 10.073,10.83 10.073,11.019L10.073,13.31C10.073,13.502 10.015,13.665 9.9,13.799C9.785,13.934 9.646,14 9.482,14L7.518,14C7.355,14 7.215,13.934 7.101,13.8C6.987,13.666 6.929,13.503 6.929,13.311L6.929,11.02C6.929,10.831 6.987,10.667 7.101,10.534C7.215,10.401 7.355,10.334 7.518,10.334L8.108,10.334L8.108,8.958L4.965,8.958L4.965,10.333L5.554,10.333C5.718,10.333 5.857,10.399 5.971,10.533C6.086,10.667 6.144,10.83 6.144,11.019L6.144,13.31C6.144,13.502 6.086,13.665 5.971,13.799C5.856,13.934 5.718,14 5.554,14L3.589,14C3.426,14 3.286,13.934 3.172,13.8C3.058,13.666 3,13.503 3,13.311L3,11.02C3,10.831 3.058,10.667 3.172,10.534C3.286,10.401 3.426,10.334 3.589,10.334L4.179,10.334L4.179,8.958C4.179,8.709 4.257,8.495 4.412,8.313C4.567,8.132 4.752,8.041 4.965,8.041L8.108,8.041L8.108,6.667L7.518,6.667C7.355,6.667 7.215,6.6 7.101,6.466C6.987,6.332 6.929,6.17 6.929,5.979L6.929,3.688C6.929,3.497 6.987,3.334 7.101,3.201C7.215,3.067 7.354,3 7.518,3L9.483,3C9.646,3 9.786,3.067 9.9,3.201C10.015,3.334 10.073,3.497 10.073,3.688L10.073,5.979C10.073,6.17 10.015,6.333 9.9,6.466C9.785,6.6 9.646,6.667 9.482,6.667L8.894,6.667L8.894,8.042L12.036,8.042C12.249,8.042 12.433,8.133 12.589,8.314C12.745,8.496 12.823,8.71 12.823,8.959L12.823,10.334L13.412,10.334C13.575,10.334 13.715,10.4 13.829,10.534C13.943,10.667 14,10.83 14,11.02Z" style="fill:rgb(235,235,235);fill-rule:nonzero;"/>
            </g>
        </g>
        <g id="buttons_highlighted" transform="matrix(1,0,0,1.5,0,0)">
            <g id="home1" serif:id="home" transform="matrix(0.666667,0,0,0.666667,0,10.6667)">
                <rect x="0" y="0" width="17" height="16" style="fill:rgb(175,152,94);"/>
                <path d="M13.952,8.7L13.529,9.219C13.492,9.26 13.445,9.287 13.386,9.296L13.365,9.296C13.306,9.296 13.258,9.279 13.221,9.247L8.5,5.199L3.778,9.247C3.724,9.284 3.67,9.301 3.615,9.296C3.556,9.287 3.507,9.26 3.472,9.219L3.049,8.7C3.012,8.653 2.996,8.598 3.001,8.535C3.005,8.471 3.03,8.421 3.076,8.384L7.982,4.182C8.127,4.061 8.3,4 8.5,4C8.7,4 8.873,4.061 9.019,4.182L10.683,5.613L10.683,4.246C10.683,4.181 10.704,4.126 10.745,4.084C10.786,4.042 10.838,4.021 10.902,4.021L12.212,4.021C12.276,4.021 12.328,4.042 12.369,4.084C12.41,4.126 12.431,4.18 12.431,4.246L12.431,7.108L13.925,8.384C13.97,8.421 13.995,8.471 14,8.535C14.004,8.598 13.989,8.653 13.952,8.7ZM12.431,9.184L12.431,12.55C12.431,12.673 12.388,12.778 12.301,12.867C12.214,12.955 12.112,13 11.994,13L9.374,13L9.374,10.306L7.627,10.306L7.627,13L5.007,13C4.889,13 4.786,12.955 4.7,12.867C4.614,12.777 4.571,12.673 4.571,12.55L4.571,9.184C4.571,9.179 4.572,9.172 4.574,9.163C4.576,9.154 4.577,9.147 4.577,9.142L8.5,5.817L12.423,9.142C12.428,9.151 12.431,9.165 12.431,9.184Z" style="fill:white;fill-rule:nonzero;"/>
            </g>
            <g id="contact1" serif:id="contact" transform="matrix(0.666667,0,0,0.666667,11.3333,10.6667)">
                <rect x="0" y="0" width="17" height="16" style="fill:rgb(175,152,94);"/>
                <path d="M14,5.022L14,11.976C14,12.257 13.904,12.498 13.712,12.698C13.52,12.899 13.288,13 13.018,13L3.982,13C3.711,13 3.481,12.899 3.288,12.698C3.096,12.499 3,12.258 3,11.977L3,5.022C3,4.742 3.096,4.5 3.289,4.3C3.482,4.1 3.712,4 3.982,4L13.017,4C13.288,4 13.519,4.1 13.711,4.3C13.903,4.5 14,4.742 14,5.022ZM13.216,5.259L13.216,5.102C13.216,5.083 13.214,5.056 13.211,5.019C13.209,4.983 13.203,4.956 13.193,4.939C13.183,4.922 13.171,4.903 13.159,4.881C13.146,4.86 13.129,4.843 13.104,4.833C13.08,4.823 13.05,4.817 13.017,4.817L3.982,4.817C3.928,4.817 3.882,4.838 3.844,4.878C3.805,4.919 3.786,4.967 3.786,5.022C3.786,5.738 4.087,6.343 4.688,6.837C5.478,7.484 6.299,8.16 7.15,8.862C7.174,8.884 7.246,8.946 7.365,9.05C7.483,9.154 7.577,9.235 7.647,9.29C7.716,9.349 7.808,9.415 7.92,9.493C8.033,9.572 8.136,9.632 8.23,9.669C8.324,9.708 8.412,9.727 8.494,9.727L8.506,9.727C8.588,9.727 8.675,9.708 8.77,9.669C8.865,9.632 8.968,9.572 9.081,9.493C9.193,9.415 9.285,9.348 9.354,9.292C9.424,9.236 9.518,9.156 9.637,9.052C9.755,8.948 9.827,8.886 9.851,8.864C10.703,8.161 11.523,7.486 12.312,6.839C12.535,6.655 12.74,6.41 12.929,6.101C13.12,5.791 13.216,5.51 13.216,5.259ZM13.216,11.977L13.216,7.068C13.084,7.221 12.944,7.361 12.791,7.49C11.694,8.367 10.822,9.087 10.176,9.651C9.968,9.834 9.798,9.977 9.667,10.08C9.536,10.183 9.359,10.285 9.135,10.39C8.912,10.494 8.702,10.546 8.506,10.546L8.494,10.546C8.298,10.546 8.088,10.494 7.865,10.39C7.642,10.286 7.465,10.183 7.334,10.08C7.203,9.977 7.033,9.833 6.825,9.65C6.178,9.087 5.306,8.367 4.209,7.49C4.058,7.361 3.917,7.221 3.786,7.068L3.786,11.977C3.786,12.033 3.806,12.08 3.845,12.121C3.884,12.162 3.929,12.183 3.983,12.183L13.018,12.183C13.072,12.183 13.118,12.162 13.158,12.121C13.195,12.079 13.216,12.032 13.216,11.977Z" style="fill:white;fill-rule:nonzero;"/>
            </g>
            <g id="sitemap1" serif:id="sitemap" transform="matrix(0.666667,0,0,0.666667,22.6667,10.6667)">
                <rect x="0" y="0" width="17" height="16" style="fill:rgb(175,152,94);"/>
                <path d="M14,11.02L14,13.311C14,13.503 13.943,13.666 13.828,13.8C13.714,13.934 13.574,14 13.411,14L11.446,14C11.283,14 11.144,13.934 11.029,13.8C10.915,13.666 10.857,13.503 10.857,13.311L10.857,11.02C10.857,10.831 10.915,10.667 11.029,10.534C11.144,10.4 11.283,10.334 11.446,10.334L12.035,10.334L12.035,8.958L8.894,8.958L8.894,10.333L9.483,10.333C9.646,10.333 9.786,10.399 9.9,10.533C10.015,10.667 10.073,10.83 10.073,11.019L10.073,13.31C10.073,13.502 10.015,13.665 9.9,13.799C9.785,13.934 9.646,14 9.482,14L7.518,14C7.355,14 7.215,13.934 7.101,13.8C6.987,13.666 6.929,13.503 6.929,13.311L6.929,11.02C6.929,10.831 6.987,10.667 7.101,10.534C7.215,10.401 7.355,10.334 7.518,10.334L8.108,10.334L8.108,8.958L4.965,8.958L4.965,10.333L5.554,10.333C5.718,10.333 5.857,10.399 5.971,10.533C6.086,10.667 6.144,10.83 6.144,11.019L6.144,13.31C6.144,13.502 6.086,13.665 5.971,13.799C5.856,13.934 5.718,14 5.554,14L3.589,14C3.426,14 3.286,13.934 3.172,13.8C3.058,13.666 3,13.503 3,13.311L3,11.02C3,10.831 3.058,10.667 3.172,10.534C3.286,10.401 3.426,10.334 3.589,10.334L4.179,10.334L4.179,8.958C4.179,8.709 4.257,8.495 4.412,8.313C4.567,8.132 4.752,8.041 4.965,8.041L8.108,8.041L8.108,6.667L7.518,6.667C7.355,6.667 7.215,6.6 7.101,6.466C6.987,6.332 6.929,6.17 6.929,5.979L6.929,3.688C6.929,3.497 6.987,3.334 7.101,3.201C7.215,3.067 7.354,3 7.518,3L9.483,3C9.646,3 9.786,3.067 9.9,3.201C10.015,3.334 10.073,3.497 10.073,3.688L10.073,5.979C10.073,6.17 10.015,6.333 9.9,6.466C9.785,6.6 9.646,6.667 9.482,6.667L8.894,6.667L8.894,8.042L12.036,8.042C12.249,8.042 12.433,8.133 12.589,8.314C12.745,8.496 12.823,8.71 12.823,8.959L12.823,10.334L13.412,10.334C13.575,10.334 13.715,10.4 13.829,10.534C13.943,10.667 14,10.83 14,11.02Z" style="fill:white;fill-rule:nonzero;"/>
            </g>
        </g>
    </g>
</svg>
