<?xml version="1.0" encoding="UTF-8" standalone="no"?>
<!DOCTYPE svg PUBLIC "-//W3C//DTD SVG 1.1//EN" "http://www.w3.org/Graphics/SVG/1.1/DTD/svg11.dtd">
<svg width="100%" height="100%" viewBox="0 0 17 16" version="1.1" xmlns="http://www.w3.org/2000/svg" xmlns:xlink="http://www.w3.org/1999/xlink" xml:space="preserve" xmlns:serif="http://www.serif.com/" style="fill-rule:evenodd;clip-rule:evenodd;stroke-linejoin:round;stroke-miterlimit:2;">
    <g>
        <path d="M14,11.02L14,13.311C14,13.503 13.943,13.666 13.828,13.8C13.714,13.934 13.574,14 13.411,14L11.446,14C11.283,14 11.144,13.934 11.029,13.8C10.915,13.666 10.857,13.503 10.857,13.311L10.857,11.02C10.857,10.831 10.915,10.667 11.029,10.534C11.144,10.4 11.283,10.334 11.446,10.334L12.035,10.334L12.035,8.958L8.894,8.958L8.894,10.333L9.483,10.333C9.646,10.333 9.786,10.399 9.9,10.533C10.015,10.667 10.073,10.83 10.073,11.019L10.073,13.31C10.073,13.502 10.015,13.665 9.9,13.799C9.785,13.934 9.646,14 9.482,14L7.518,14C7.355,14 7.215,13.934 7.101,13.8C6.987,13.666 6.929,13.503 6.929,13.311L6.929,11.02C6.929,10.831 6.987,10.667 7.101,10.534C7.215,10.401 7.355,10.334 7.518,10.334L8.108,10.334L8.108,8.958L4.965,8.958L4.965,10.333L5.554,10.333C5.718,10.333 5.857,10.399 5.971,10.533C6.086,10.667 6.144,10.83 6.144,11.019L6.144,13.31C6.144,13.502 6.086,13.665 5.971,13.799C5.856,13.934 5.718,14 5.554,14L3.589,14C3.426,14 3.286,13.934 3.172,13.8C3.058,13.666 3,13.503 3,13.311L3,11.02C3,10.831 3.058,10.667 3.172,10.534C3.286,10.401 3.426,10.334 3.589,10.334L4.179,10.334L4.179,8.958C4.179,8.709 4.257,8.495 4.412,8.313C4.567,8.132 4.752,8.041 4.965,8.041L8.108,8.041L8.108,6.667L7.518,6.667C7.355,6.667 7.215,6.6 7.101,6.466C6.987,6.332 6.929,6.17 6.929,5.979L6.929,3.688C6.929,3.497 6.987,3.334 7.101,3.201C7.215,3.067 7.354,3 7.518,3L9.483,3C9.646,3 9.786,3.067 9.9,3.201C10.015,3.334 10.073,3.497 10.073,3.688L10.073,5.979C10.073,6.17 10.015,6.333 9.9,6.466C9.785,6.6 9.646,6.667 9.482,6.667L8.894,6.667L8.894,8.042L12.036,8.042C12.249,8.042 12.433,8.133 12.589,8.314C12.745,8.496 12.823,8.71 12.823,8.959L12.823,10.334L13.412,10.334C13.575,10.334 13.715,10.4 13.829,10.534C13.943,10.667 14,10.83 14,11.02Z" style="fill:white;fill-rule:nonzero;"/>
    </g>
</svg>
