<?xml version="1.0" encoding="UTF-8" standalone="no"?>
<!DOCTYPE svg PUBLIC "-//W3C//DTD SVG 1.1//EN" "http://www.w3.org/Graphics/SVG/1.1/DTD/svg11.dtd">
<svg width="100%" height="100%" viewBox="0 0 17 16" version="1.1" xmlns="http://www.w3.org/2000/svg" xmlns:xlink="http://www.w3.org/1999/xlink" xml:space="preserve" xmlns:serif="http://www.serif.com/" style="fill-rule:evenodd;clip-rule:evenodd;stroke-linejoin:round;stroke-miterlimit:2;">
    <g>
        <rect x="0" y="0" width="17" height="16" style="fill:rgb(175,152,94);"/>
        <path d="M14,5.022L14,11.976C14,12.257 13.904,12.498 13.712,12.698C13.52,12.899 13.288,13 13.018,13L3.982,13C3.711,13 3.481,12.899 3.288,12.698C3.096,12.499 3,12.258 3,11.977L3,5.022C3,4.742 3.096,4.5 3.289,4.3C3.482,4.1 3.712,4 3.982,4L13.017,4C13.288,4 13.519,4.1 13.711,4.3C13.903,4.5 14,4.742 14,5.022ZM13.216,5.259L13.216,5.102C13.216,5.083 13.214,5.056 13.211,5.019C13.209,4.983 13.203,4.956 13.193,4.939C13.183,4.922 13.171,4.903 13.159,4.881C13.146,4.86 13.129,4.843 13.104,4.833C13.08,4.823 13.05,4.817 13.017,4.817L3.982,4.817C3.928,4.817 3.882,4.838 3.844,4.878C3.805,4.919 3.786,4.967 3.786,5.022C3.786,5.738 4.087,6.343 4.688,6.837C5.478,7.484 6.299,8.16 7.15,8.862C7.174,8.884 7.246,8.946 7.365,9.05C7.483,9.154 7.577,9.235 7.647,9.29C7.716,9.349 7.808,9.415 7.92,9.493C8.033,9.572 8.136,9.632 8.23,9.669C8.324,9.708 8.412,9.727 8.494,9.727L8.506,9.727C8.588,9.727 8.675,9.708 8.77,9.669C8.865,9.632 8.968,9.572 9.081,9.493C9.193,9.415 9.285,9.348 9.354,9.292C9.424,9.236 9.518,9.156 9.637,9.052C9.755,8.948 9.827,8.886 9.851,8.864C10.703,8.161 11.523,7.486 12.312,6.839C12.535,6.655 12.74,6.41 12.929,6.101C13.12,5.791 13.216,5.51 13.216,5.259ZM13.216,11.977L13.216,7.068C13.084,7.221 12.944,7.361 12.791,7.49C11.694,8.367 10.822,9.087 10.176,9.651C9.968,9.834 9.798,9.977 9.667,10.08C9.536,10.183 9.359,10.285 9.135,10.39C8.912,10.494 8.702,10.546 8.506,10.546L8.494,10.546C8.298,10.546 8.088,10.494 7.865,10.39C7.642,10.286 7.465,10.183 7.334,10.08C7.203,9.977 7.033,9.833 6.825,9.65C6.178,9.087 5.306,8.367 4.209,7.49C4.058,7.361 3.917,7.221 3.786,7.068L3.786,11.977C3.786,12.033 3.806,12.08 3.845,12.121C3.884,12.162 3.929,12.183 3.983,12.183L13.018,12.183C13.072,12.183 13.118,12.162 13.158,12.121C13.195,12.079 13.216,12.032 13.216,11.977Z" style="fill:white;fill-rule:nonzero;"/>
    </g>
</svg>
